<?xml version="1.0" standalone="no"?>
<!DOCTYPE svg PUBLIC "-//W3C//DTD SVG 20010904//EN"
 "http://www.w3.org/TR/2001/REC-SVG-20010904/DTD/svg10.dtd">
<svg version="1.0" xmlns="http://www.w3.org/2000/svg"
 width="1270.000000pt" height="1270.000000pt" viewBox="0 0 1270.000000 1270.000000"
 preserveAspectRatio="xMidYMid meet">
<metadata>
Created by potrace 1.16, written by Peter Selinger 2001-2019
</metadata>
<g transform="translate(0.000000,1270.000000) scale(0.100000,-0.100000)"
fill="#000000" stroke="none">
<path d="M4466 10277 c-161 -250 -362 -624 -485 -902 -89 -203 -151 -364 -143
-369 4 -2 106 -43 227 -91 222 -87 566 -250 728 -344 48 -28 89 -51 91 -51 2
0 33 53 69 119 160 292 403 646 624 909 29 35 53 67 53 71 0 17 -356 285 -555
418 -186 124 -522 323 -546 323 -5 0 -34 -37 -63 -83z"/>
<path d="M6170 9893 c-493 -497 -862 -996 -1126 -1522 -536 -1071 -534 -2037
7 -3111 224 -446 526 -872 931 -1317 144 -157 404 -413 421 -413 16 0 349 334
485 485 657 734 1084 1522 1221 2256 41 217 46 281 46 549 0 268 -6 341 -46
550 -128 677 -486 1378 -1059 2070 -209 252 -615 670 -651 670 -7 0 -110 -98
-229 -217z"/>
<path d="M8355 10027 c-231 -120 -408 -225 -638 -379 -142 -95 -356 -250 -357
-259 0 -3 35 -53 78 -110 133 -176 307 -445 416 -641 21 -38 40 -68 43 -68 2
0 55 28 116 62 141 78 320 163 512 243 153 63 407 158 458 171 16 3 31 12 33
19 8 20 -139 354 -260 590 -115 225 -241 445 -254 445 -4 0 -70 -33 -147 -73z"/>
<path d="M2716 9081 c-18 -29 -108 -422 -145 -631 -73 -421 -108 -862 -96
-1229 4 -118 9 -220 12 -227 4 -10 26 -14 77 -14 184 0 483 -32 707 -76 403
-78 818 -243 1122 -447 32 -21 61 -37 63 -34 3 3 0 65 -7 138 -18 204 -7 535
25 734 51 315 138 611 267 914 27 62 49 117 49 120 0 19 -405 230 -625 326
-236 103 -539 209 -840 293 -231 65 -601 146 -609 133z"/>
<path d="M9875 9073 c-501 -104 -964 -250 -1385 -435 -132 -58 -448 -217 -485
-244 -17 -13 -16 -18 28 -116 168 -378 266 -720 313 -1093 18 -141 24 -523 11
-634 l-8 -64 63 37 c217 127 520 254 767 322 284 78 684 134 957 134 l71 0 7
41 c4 23 7 172 7 333 0 376 -24 654 -87 1036 -25 152 -91 466 -119 565 -8 28
-19 69 -25 93 -12 48 -10 47 -115 25z"/>
<path d="M2260 6770 c-564 -25 -1202 -158 -1805 -377 -99 -36 -190 -70 -202
-77 l-23 -11 64 -191 c96 -287 205 -552 335 -819 218 -445 393 -725 665 -1065
130 -162 439 -471 586 -584 564 -437 1168 -642 1960 -663 583 -15 1229 90
1900 309 168 55 419 145 429 154 2 2 -72 82 -165 177 -717 729 -1195 1490
-1429 2274 -18 62 -39 137 -45 167 -11 54 -12 56 -108 125 -493 354 -1052 544
-1692 576 -238 11 -300 12 -470 5z"/>
<path d="M10039 6770 c-544 -26 -976 -136 -1397 -355 -164 -86 -331 -195 -337
-220 -59 -261 -108 -423 -196 -645 -184 -468 -450 -914 -822 -1380 -164 -206
-282 -337 -505 -561 -166 -168 -183 -188 -165 -197 10 -6 120 -45 244 -87 720
-244 1387 -358 1999 -342 792 21 1396 226 1960 663 238 184 557 528 777 836
317 445 608 1032 809 1632 l64 191 -23 11 c-12 7 -103 41 -202 77 -753 273
-1544 408 -2206 377z"/>
</g>
</svg>
